<svg width="166" height="87" viewBox="0 0 166 87" fill="none" xmlns="http://www.w3.org/2000/svg">
<path d="M89.1269 30.8491L92.1188 30.8127L91.7603 60.2756L90.2462 61.7897L88.7685 60.312L89.1269 30.8491ZM85.3824 15.2549C84.9709 15.6663 84.7036 16.2549 84.6961 16.8727L84.6237 22.8239L96.8186 22.6755L96.891 16.7244C96.9065 15.4561 95.8946 14.4442 94.6263 14.4596L87.0167 14.5522C86.3663 14.5601 85.8103 14.827 85.3824 15.2549ZM84.5814 26.3035L84.1437 62.2704L90.167 68.2937L96.3387 62.122L96.7763 26.1551L84.5814 26.3035Z" fill="#312528"/>
<rect x="88" y="29" width="6" height="33" fill="#312528"/>
<path d="M5.344 67V19.448C5.81333 19.448 6.272 19.448 6.72 19.448C7.18933 19.448 7.648 19.448 8.096 19.448C8.544 19.448 8.992 19.448 9.44 19.448C10.336 19.448 11.4667 19.4053 12.832 19.32C14.1973 19.2346 15.6587 19.1493 17.216 19.064C18.7733 18.9786 20.2773 18.936 21.728 18.936C29.6427 18.936 35.4667 20.952 39.2 24.984C42.9333 29.016 44.8 34.6693 44.8 41.944C44.8 47.3626 43.8507 51.992 41.952 55.832C40.0533 59.6506 37.3227 62.5626 33.76 64.568C30.2187 66.5733 25.9627 67.5546 20.992 67.512C18.944 67.4693 16.8853 67.3733 14.816 67.224C12.7467 67.0746 10.8267 67 9.056 67C8.65067 67 8.23467 67 7.808 67C7.40267 67 6.98667 67 6.56 67C6.15467 67 5.74933 67 5.344 67ZM15.392 59.544C16.2027 59.7573 17.1947 59.9066 18.368 59.992C19.5413 60.0773 20.704 60.1093 21.856 60.088C24.352 60.0666 26.5387 59.4586 28.416 58.264C30.2933 57.0693 31.7547 55.224 32.8 52.728C33.8667 50.2106 34.4 46.968 34.4 43C34.4 38.8613 33.8987 35.5653 32.896 33.112C31.8933 30.6586 30.3893 28.8986 28.384 27.832C26.3787 26.744 23.8613 26.2 20.832 26.2C19.8507 26.2 18.8587 26.2426 17.856 26.328C16.8533 26.4133 16.032 26.52 15.392 26.648V59.544ZM60.9565 67.512C58.6952 67.512 56.7112 67.0533 55.0045 66.136C53.2978 65.2186 51.9645 63.9386 51.0045 62.296C50.0658 60.6533 49.5965 58.744 49.5965 56.568C49.5965 54.392 50.1832 52.5253 51.3565 50.968C52.5512 49.4106 54.1618 48.1946 56.1885 47.32C57.5752 46.744 59.0898 46.296 60.7325 45.976C62.3965 45.656 64.0498 45.432 65.6925 45.304C67.3565 45.176 68.9032 45.112 70.3325 45.112L71.9645 47.128L70.3325 50.264C69.5645 50.264 68.7005 50.3173 67.7405 50.424C66.7805 50.5306 65.8525 50.6906 64.9565 50.904C64.0818 51.096 63.3458 51.32 62.7485 51.576C61.9165 51.96 61.1698 52.472 60.5085 53.112C59.8685 53.752 59.5485 54.7333 59.5485 56.056C59.5485 57.784 60.0285 59.064 60.9885 59.896C61.9485 60.7066 63.1858 61.112 64.7005 61.112C65.4898 61.112 66.2685 61.0053 67.0365 60.792C67.8258 60.5786 68.5192 60.3333 69.1165 60.056C69.7138 59.7573 70.1192 59.48 70.3325 59.224L72.0285 61.24L70.8445 63.992C69.8845 64.8453 68.5618 65.6453 66.8765 66.392C65.2125 67.1386 63.2392 67.512 60.9565 67.512ZM80.0925 67H70.8445V61.688H70.3325V42.488C70.3325 40.6746 69.8525 39.4906 68.8925 38.936C67.9325 38.36 66.5565 38.072 64.7645 38.072C63.4205 38.072 62.0125 38.1893 60.5405 38.424C59.0898 38.6586 57.7138 38.968 56.4125 39.352C55.1112 39.736 54.0232 40.152 53.1485 40.6L51.0365 34.456C51.7618 34.0293 52.8925 33.528 54.4285 32.952C55.9645 32.376 57.7245 31.8746 59.7085 31.448C61.6925 31 63.6872 30.776 65.6925 30.776C68.9778 30.776 71.6765 31.16 73.7885 31.928C75.9218 32.696 77.5005 33.9973 78.5245 35.832C79.5698 37.6666 80.0925 40.2053 80.0925 43.448V67ZM101.053 67V15H110.845V67H101.053ZM119.814 82.296V74.616C120.177 74.744 120.742 74.872 121.51 75C122.299 75.128 122.918 75.192 123.366 75.192C124.39 75.192 125.51 75 126.726 74.616C127.963 74.2533 129.115 73.4213 130.182 72.12C131.249 70.84 132.059 68.8346 132.614 66.104L133.062 67H128.838L116.358 31.352H126.758L132.87 51.992L135.75 62.936H134.406L136.998 51.992L141.99 31.352H152.326L140.87 67.928C139.505 72.1946 137.83 75.4266 135.846 77.624C133.883 79.8213 131.761 81.2933 129.478 82.04C128.838 82.296 128.017 82.4986 127.014 82.648C126.033 82.7973 125.169 82.872 124.422 82.872C124.102 82.872 123.601 82.84 122.918 82.776C122.235 82.712 121.574 82.6373 120.934 82.552C120.315 82.4666 119.942 82.3813 119.814 82.296Z" fill="#683142"/>
</svg>
